<svg  data-name="Quarkus Logo" xmlns="http://www.w3.org/2000/svg" viewBox="0 0 150 195">
    <defs>
        <style>.cls-1 {
            fill: #fff;
            }

            .cls-2 {
            fill: #4695eb;
            }

            .cls-3 {
            fill: #ff004a;
            }</style>
    </defs>
    <polygon class="cls-2" points="126.05 34.6 96.61 51.59 126.05 68.59 126.05 34.6"></polygon>
    <polygon class="cls-3" points="67.17 34.6 67.17 68.59 96.61 51.59 67.17 34.6"></polygon>
    <polygon class="cls-1" points="126.05 68.59 96.61 51.59 67.17 68.59 96.61 85.59 126.05 68.59"></polygon>
    <polygon class="cls-2" points="36.13 88.36 65.57 105.36 65.57 71.37 36.13 88.36"></polygon>
    <polygon class="cls-3" points="65.57 139.35 95.01 122.36 65.57 105.36 65.57 139.35"></polygon>
    <polygon class="cls-1" points="65.57 71.37 65.57 105.36 95.01 122.36 95.01 88.36 65.57 71.37"></polygon>
    <polygon class="cls-2" points="127.65 139.35 127.65 105.36 98.21 122.36 127.65 139.35"></polygon>
    <polygon class="cls-3" points="157.09 88.36 127.65 71.37 127.65 105.36 157.09 88.36"></polygon>
    <polygon class="cls-1" points="98.21 122.36 127.65 105.36 127.65 71.37 98.21 88.36 98.21 122.36"></polygon>
    <path class="cls-2" d="M160.5,1H32.72A31.81,31.81,0,0,0,1,32.72V160.5a31.81,31.81,0,0,0,31.72,31.72h87.51L96.61,134.85,79.48,171.07H32.72A10.71,10.71,0,0,1,22.15,160.5V32.72A10.71,10.71,0,0,1,32.72,22.15H160.5a10.71,10.71,0,0,1,10.57,10.57V160.5a10.71,10.71,0,0,1-10.57,10.57H132.77l8.71,21.15h19a31.81,31.81,0,0,0,31.72-31.72V32.72A31.81,31.81,0,0,0,160.5,1Z"></path>
</svg>